<?xml version="1.0" encoding="UTF-8"?>
<svg version="1.1" xmlns="http://www.w3.org/2000/svg" xmlns:xlink="http://www.w3.org/1999/xlink">
    <title>Background</title>
    <defs></defs>
    <g id="Page-1" stroke="none" stroke-width="1" fill="none" fill-rule="evenodd">
        <g id="Home" transform="translate(-95.000000, -101.000000)">
            <g id="Background" transform="translate(95.000000, 103.000000)">
                <path d="M445.053682,53.2291535 L477.053682,83.2291535" id="Line" stroke="#00E3FE" stroke-width="4" stroke-linecap="round"></path>
                <path d="M235.273151,537.151943 L208.883396,563.541698" id="Line-Copy" stroke="#00E3FE" stroke-width="4" stroke-linecap="round"></path>
                <path d="M1242.06539,663.757831 L1259.31178,680.203317" id="Line-Copy-2" stroke="#FF9513" stroke-width="2" stroke-linecap="round"></path>
                <path d="M1206.44632,406.459579 L1184.5,427.188733" id="Line-Copy" stroke="#00E3FE" stroke-width="4" stroke-linecap="round"></path>
                <path d="M1007.22713,334 L1022.67758,346.5" id="Line-Copy-3" stroke="#FF002D" stroke-width="4" stroke-linecap="round"></path>
                <circle id="Oval" fill="#CA6FDD" cx="7.59626571" cy="166.656475" r="6.72902834"></circle>
                <circle id="Oval-Copy-4" fill="#CA6FDD" cx="204.928081" cy="106.245785" r="3.77371306"></circle>
                <path d="M207.103707,295.94912 C209.273162,295.94912 213.053046,293.28551 213.053046,289.999781 C213.053046,286.714052 210.389436,284.050442 207.103707,284.050442 C203.817978,284.050442 201.154368,286.714052 201.154368,289.999781 C201.154368,293.28551 204.934251,295.94912 207.103707,295.94912 Z" id="Oval-Copy-6" fill="#FF0000"></path>
                <path d="M1007.17758,506.041698 C1010.97697,506.041698 1017.59671,501.376896 1017.59671,495.622571 C1017.59671,489.868246 1012.93191,485.203444 1007.17758,485.203444 C1001.42326,485.203444 996.758455,489.868246 996.758455,495.622571 C996.758455,501.376896 1003.3782,506.041698 1007.17758,506.041698 Z" id="Oval-Copy-7" fill="#CA6FDD"></path>
                <path d="M1131.71927,564.041698 C1133.44017,564.041698 1136.43853,561.92881 1136.43853,559.322431 C1136.43853,556.716052 1134.32565,554.603165 1131.71927,554.603165 C1129.11289,554.603165 1127,556.716052 1127,559.322431 C1127,561.92881 1129.99836,564.041698 1131.71927,564.041698 Z" id="Oval-Copy-8" fill="#FF8803"></path>
                <circle id="Oval-Copy-5" fill="#CA6FDD" cx="361.988853" cy="684.477603" r="3.77371306"></circle>
                <circle id="Oval-Copy" fill="#DC2B2B" cx="462.241842" cy="433.124252" r="4.81183973"></circle>
                <circle id="Oval-Copy-3" fill="#DC2B2B" cx="1035.11604" cy="73.0409932" r="4.81183973"></circle>
                <path d="M630.5,0.128336091 C639.23172,0.128336091 646.310185,7.20680117 646.310185,15.9385209 C646.310185,24.6702407 639.23172,31.7487057 630.5,31.7487057 C621.76828,31.7487057 614.689815,24.6702407 614.689815,15.9385209" id="Page-1-Copy" stroke="#00EBFE" stroke-width="3"></path>
                <path d="M1030.3042,657.350172 C1030.3042,660.859244 1027.4595,663.70389 1023.95043,663.70389 C1020.44135,663.70389 1017.59671,660.859244 1017.59671,657.350172 C1017.59671,653.841099 1020.44135,650.996454 1023.95043,650.996454 C1027.4595,650.996454 1030.3042,653.841099 1030.3042,657.350172 Z" id="Page-1" stroke="#3FFFBB" stroke-width="3"></path>
                <path d="M1247.59645,257.696724 C1247.59645,261.205797 1244.75175,264.050442 1241.24267,264.050442 C1237.7336,264.050442 1234.88896,261.205797 1234.88896,257.696724 C1234.88896,254.187652 1237.7336,251.343006 1241.24267,251.343006 C1244.75175,251.343006 1247.59645,254.187652 1247.59645,257.696724 Z" id="Page-1" stroke="#3FFFBB" stroke-width="3"></path>
            </g>
        </g>
    </g>
</svg>
