<?xml version="1.0" encoding="UTF-8"?>
<svg width="24px" height="25px" viewBox="0 0 24 25" version="1.1" xmlns="http://www.w3.org/2000/svg" xmlns:xlink="http://www.w3.org/1999/xlink">
    <!-- Generator: Sketch 50.2 (55047) - http://www.bohemiancoding.com/sketch -->
    <title>Delete Icon</title>
    <desc>Created with Sketch.</desc>
    <defs></defs>
    <g id="Page-1" stroke="none" stroke-width="1" fill="none" fill-rule="evenodd">
        <g id="Dashboard-Edit" transform="translate(-304.000000, -147.000000)" fill="#D80027" fill-rule="nonzero">
            <g id="Cards" transform="translate(-300.000000, 125.000000)">
                <g id="Delete-Icon" transform="translate(604.000000, 22.536153)">
                    <path d="M11.9783448,0 C5.37352072,0 0,5.37370041 0,11.9788239 C0,18.5839474 5.37352072,23.9576478 11.9783448,23.9576478 C18.5835282,23.9576478 23.9576478,18.5839474 23.9576478,11.9788239 C23.9576478,5.37370041 18.5835282,0 11.9783448,0 Z M11.9783448,22.3866251 C6.23964959,22.3866251 1.57102276,17.7176389 1.57102276,11.9788239 C1.57102276,6.23994906 6.23958969,1.57108265 11.9783448,1.57108265 C17.7175191,1.57108265 22.3865053,6.24000895 22.3865053,11.9788239 C22.3865652,17.7176389 17.7175191,22.3866251 11.9783448,22.3866251 Z" id="Shape"></path>
                    <path d="M15.9002716,8.05749601 C15.593434,7.75065844 15.0963727,7.75065844 14.7895352,8.05749601 L11.9788239,10.8680276 L9.16811267,8.05749601 C8.8612751,7.75065844 8.36409401,7.75065844 8.05725643,8.05749601 C7.75041886,8.3641539 7.75041886,8.86163446 8.05725643,9.16829235 L10.8676083,11.9788239 L8.05689707,14.7894154 C7.7500595,15.0960134 7.7500595,15.5933142 8.05689707,15.9002716 C8.21028591,16.0537203 8.41135047,16.1303848 8.61229524,16.1303848 C8.81324001,16.1303848 9.01424468,16.0537203 9.16757362,15.9002716 L11.9788239,13.0894406 L14.7895352,15.9003914 C14.9429839,16.0538401 15.1438688,16.1305046 15.3448135,16.1305046 C15.5456984,16.1305046 15.746763,16.0539 15.9001518,15.9003914 C16.2069894,15.5937934 16.2069894,15.0962529 15.9001518,14.7896549 L13.0895604,11.9788239 L15.9002716,9.16829235 C16.2071092,8.86163446 16.2071092,8.36433359 15.9002716,8.05749601 Z" id="Shape"></path>
                </g>
            </g>
        </g>
    </g>
</svg>