<?xml version="1.0" encoding="UTF-8"?>
<svg width="115px" height="71px" viewBox="0 0 115 71" version="1.1" xmlns="http://www.w3.org/2000/svg" xmlns:xlink="http://www.w3.org/1999/xlink">
    <title>Dots</title>
    <defs></defs>
    <g id="Dots">
        <path d="M29.240062,5.51807363 C29.240062,8.56562687 26.7695416,11.0361473 23.7219883,11.0361473 C20.6744351,11.0361473 18.2039147,8.56562687 18.2039147,5.51807363 C18.2039147,2.4705204 20.6744351,0 23.7219883,0 C26.7695416,0 29.240062,2.4705204 29.240062,5.51807363" id="Fill-13" fill="#436FFC"></path>
        <path d="M111.485636,1.05106164 C113.081673,1.05106164 114.376055,2.34491853 114.376055,3.94148117 C114.376055,5.5380438 113.081673,6.83190069 111.485636,6.83190069 C109.889599,6.83190069 108.595216,5.5380438 108.595216,3.94148117 C108.595216,2.34491853 109.889599,1.05106164 111.485636,1.05106164" id="Fill-20" fill="#69E5FB"></path>
        <path d="M54.9910723,63.3264641 C54.9910723,66.9542033 52.0496763,69.8955994 48.421937,69.8955994 C44.7941977,69.8955994 41.8528017,66.9542033 41.8528017,63.3264641 C41.8528017,59.6987248 44.7941977,56.7573288 48.421937,56.7573288 C52.0496763,56.7573288 54.9910723,59.6987248 54.9910723,63.3264641" id="Fill-15" fill="#CA6FDD"></path>
        <path d="M29.7045261,53.0175464 C30.3961247,53.7091449 30.3961247,54.8311532 29.7045261,55.5232773 C29.0129276,56.2148759 27.8909192,56.2148759 27.1987952,55.5232773 C26.5071966,54.8311532 26.5071966,53.7091449 27.1987952,53.0175464 C27.8909192,52.3259478 29.0129276,52.3259478 29.7045261,53.0175464" id="Fill-23" fill="#6B6BED"></path>
        <path d="M0.791081547,24.2447338 C1.84582191,23.1899935 3.5558992,23.1899935 4.61063956,24.2447338 C5.66485439,25.2994742 5.66485439,27.0095515 4.61063956,28.0642919 C3.5558992,29.1190322 1.84582191,29.1190322 0.791081547,28.0642919 C-0.263658814,27.0095515 -0.263658814,25.2994742 0.791081547,24.2447338" id="Fill-25" fill="#6B6BED"></path>
        <path d="M77.851663,10.9047646 C77.851663,12.2837574 76.733859,13.401036 75.3553916,13.401036 C73.9769243,13.401036 72.8591202,12.2837574 72.8591202,10.9047646 C72.8591202,9.52577168 73.9769243,8.40849316 75.3553916,8.40849316 C76.733859,8.40849316 77.851663,9.52577168 77.851663,10.9047646" id="Fill-27" fill="#6B6BED"></path>
        <path d="M90.2016374,63.5892295 C87.8798422,63.5892295 85.9973908,61.7067781 85.9973908,59.3849829 C85.9973908,57.0631877 87.8798422,55.1807363 90.2016374,55.1807363 C92.5234325,55.1807363 94.4058839,57.0631877 94.4058839,59.3849829 C94.4058839,61.7067781 92.5234325,63.5892295 90.2016374,63.5892295" id="Fill-29" fill="#436FFC"></path>
    </g>
</svg>
