<?xml version="1.0" encoding="UTF-8"?>
<svg width="25px" height="25px" viewBox="0 0 25 25" version="1.1" xmlns="http://www.w3.org/2000/svg" xmlns:xlink="http://www.w3.org/1999/xlink">
    <!-- Generator: Sketch 50.2 (55047) - http://www.bohemiancoding.com/sketch -->
    <title>Edit Icon</title>
    <desc>Created with Sketch.</desc>
    <defs></defs>
    <g id="Page-1" stroke="none" stroke-width="1" fill="none" fill-rule="evenodd">
        <g id="Dashboard-Edit" transform="translate(-53.000000, -147.000000)" fill="#111213" fill-rule="nonzero">
            <g id="Cards" transform="translate(-300.000000, 125.000000)">
                <g id="Edit-Icon" transform="translate(353.500000, 22.536153)">
                    <path d="M11.7561004,0.157558643 C7.80011079,0.235914271 4.02603702,2.27633897 1.83281448,5.77222535 C-1.09148247,10.4334498 -0.462382072,16.4987855 3.356258,20.4606615 C7.17489769,24.4224947 13.2138241,25.2750234 17.9794753,22.5242498 C22.7451264,19.7734763 25.027819,14.1182484 23.5071834,8.82998193 C23.3757483,8.3762902 22.9018317,8.11464169 22.4478685,8.24513598 C21.9939053,8.37563027 21.7312748,8.84900335 21.8608277,9.30323614 C23.1665031,13.8439497 21.2152391,18.679013 17.12327,21.0409409 C13.0313004,23.4028689 7.86839103,22.6742985 4.58956138,19.2725093 C1.31073195,15.87072 0.772601179,10.6842324 3.28351395,6.68194349 C5.79442675,2.67967164 10.6980156,0.907287582 15.1876103,2.37917728 C15.479906,2.48047307 15.8041117,2.41623863 16.0357031,2.21114579 C16.2672945,2.00605295 16.3702596,1.69199309 16.3050507,1.38959364 C16.2398417,1.0871942 16.0165984,0.843477453 15.7210664,0.752052723 C14.4138815,0.323500606 13.0747631,0.1314401 11.7561004,0.157558643 Z M20.6835454,0.302210505 C20.460835,0.305540731 20.2481863,0.395519055 20.0907239,0.553051902 L8.65737265,11.9864029 C8.57251376,12.0712149 8.50642438,12.1729127 8.46338864,12.2849039 L6.94997898,16.2197696 C6.82884487,16.5354751 6.90484586,16.892901 7.14395194,17.1320071 C7.38305802,17.3711131 7.74048389,17.4471141 8.05618939,17.32598 L11.9918912,15.8125703 C12.1035105,15.7696777 12.2049089,15.7038826 12.2895561,15.6194224 L23.7229069,4.18607163 C23.8836718,4.02546219 23.9740016,3.8075357 23.9740016,3.58028969 C23.9740016,3.35304367 23.8836718,3.13511719 23.7229069,2.97450774 L21.3014513,0.553051902 C21.1378423,0.389373935 20.9149484,0.298889214 20.6835454,0.302210505 Z M20.6960876,2.36914362 L21.9068154,3.57987143 L13.6992848,11.787402 L12.488557,10.5766741 L20.6960876,2.36914362 Z M11.2778292,11.787402 L12.488557,12.9989658 L11.2075938,14.2799295 L9.2393247,15.0366343 L9.99602952,13.0692017 L11.2778292,11.787402 Z" id="Shape"></path>
                </g>
            </g>
        </g>
    </g>
</svg>