<?xml version="1.0" encoding="UTF-8"?>
<svg width="622px" height="670px" viewBox="0 0 622 670" version="1.1" xmlns="http://www.w3.org/2000/svg" xmlns:xlink="http://www.w3.org/1999/xlink" style="background: #1B1A68;">
    <!-- Generator: Sketch 49.2 (51160) - http://www.bohemiancoding.com/sketch -->
    <title>Desktop HD</title>
    <desc>Created with Sketch.</desc>
    <defs>
        <path d="M-731,-123 L709,-123 L709,777 L-731,777 L-731,-123 Z M225.250018,224.691757 C188.491624,243.070954 184,275 180.698721,299.792515 C176.261507,333.115876 133.126648,359.141063 159.05952,386.349321 C189.810711,418.612866 281.257364,392.713792 365.268381,399.078263 C399.613276,401.680149 415.54118,394.603103 434.004668,378.711956 C459.426377,356.832012 474.186762,312.156944 459.462553,287.063573 C446.963775,265.76284 414.944605,267.237019 380.543112,261.605689 C368.165295,259.57951 346.608399,254.342932 328.354449,247.603853 C317.096237,243.447492 291.506681,227.466434 281.257364,224.691757 C272.054237,222.200303 248.162114,213.235709 225.250018,224.691757 Z" id="path-1"></path>
        <filter x="-1.8%" y="-2.4%" width="103.6%" height="105.8%" filterUnits="objectBoundingBox" id="filter-2">
            <feMorphology radius="3.5" operator="dilate" in="SourceAlpha" result="shadowSpreadOuter1"></feMorphology>
            <feOffset dx="0" dy="4" in="shadowSpreadOuter1" result="shadowOffsetOuter1"></feOffset>
            <feGaussianBlur stdDeviation="4.5" in="shadowOffsetOuter1" result="shadowBlurOuter1"></feGaussianBlur>
            <feColorMatrix values="0 0 0 0 0   0 0 0 0 0   0 0 0 0 0  0 0 0 0.265398551 0" type="matrix" in="shadowBlurOuter1"></feColorMatrix>
        </filter>
        <path d="M-733,-123 L707,-123 L707,777 L-733,777 L-733,-123 Z M255,178 C207.262406,182.896164 172.792327,218.623019 163,248 C155.52317,270.430491 130.860633,299.695344 128.867246,353.082104 C127.655605,385.532163 127.129822,425.683691 131.315327,452.229415 C132.767611,461.440229 140.167887,473.496409 148.4519,477.934273 C156.887616,482.453407 179.537415,487.711613 207.205862,486.502559 C264.451836,484.001029 348.422983,467.69073 409.172606,457.125578 C437.325546,452.229415 450.789996,436.316883 460.582323,421.628393 C470.37465,406.939902 470.37465,383.117434 470.37465,351.167896 C470.37465,316.637374 496.928906,282.103018 499.751631,253.934793 C501.571529,235.77386 493.631426,223.333771 467.926568,218.437607 C444.275679,213.932676 402.998811,217.003004 362.659053,206.197199 C359.696794,205.403699 323.489745,191.508708 312.473377,182.940422 C290.774476,166.063499 258.887206,177.601312 255,178 Z" id="path-3"></path>
        <filter x="-1.4%" y="-1.1%" width="102.8%" height="104.4%" filterUnits="objectBoundingBox" id="filter-4">
            <feMorphology radius="2.5" operator="dilate" in="SourceAlpha" result="shadowSpreadOuter1"></feMorphology>
            <feOffset dx="0" dy="10" in="shadowSpreadOuter1" result="shadowOffsetOuter1"></feOffset>
            <feGaussianBlur stdDeviation="2.5" in="shadowOffsetOuter1" result="shadowBlurOuter1"></feGaussianBlur>
            <feColorMatrix values="0 0 0 0 0   0 0 0 0 0   0 0 0 0 0  0 0 0 0.165647645 0" type="matrix" in="shadowBlurOuter1"></feColorMatrix>
        </filter>
        <path d="M76.5,331.5 L0.5,0.5" id="path-5"></path>
        <filter x="-13.6%" y="-3.5%" width="129.9%" height="106.9%" filterUnits="objectBoundingBox" id="filter-6">
            <feMorphology radius="4" operator="dilate" in="SourceAlpha" result="shadowSpreadOuter1"></feMorphology>
            <feOffset dx="1" dy="0" in="shadowSpreadOuter1" result="shadowOffsetOuter1"></feOffset>
            <feMorphology radius="4" operator="erode" in="SourceAlpha" result="shadowInner"></feMorphology>
            <feOffset dx="1" dy="0" in="shadowInner" result="shadowInner"></feOffset>
            <feComposite in="shadowOffsetOuter1" in2="shadowInner" operator="out" result="shadowOffsetOuter1"></feComposite>
            <feGaussianBlur stdDeviation="1" in="shadowOffsetOuter1" result="shadowBlurOuter1"></feGaussianBlur>
            <feColorMatrix values="0 0 0 0 0   0 0 0 0 0   0 0 0 0 0  0 0 0 0.200379303 0" type="matrix" in="shadowBlurOuter1"></feColorMatrix>
        </filter>
        <path d="M112.5,331.5 L36.5,0.5" id="path-7"></path>
        <filter x="-13.0%" y="-3.9%" width="139.0%" height="109.0%" filterUnits="objectBoundingBox" id="filter-8">
            <feMorphology radius="3" operator="dilate" in="SourceAlpha" result="shadowSpreadOuter1"></feMorphology>
            <feOffset dx="5" dy="2" in="shadowSpreadOuter1" result="shadowOffsetOuter1"></feOffset>
            <feMorphology radius="3" operator="erode" in="SourceAlpha" result="shadowInner"></feMorphology>
            <feOffset dx="5" dy="2" in="shadowInner" result="shadowInner"></feOffset>
            <feComposite in="shadowOffsetOuter1" in2="shadowInner" operator="out" result="shadowOffsetOuter1"></feComposite>
            <feGaussianBlur stdDeviation="2.5" in="shadowOffsetOuter1" result="shadowBlurOuter1"></feGaussianBlur>
            <feColorMatrix values="0 0 0 0 0   0 0 0 0 0   0 0 0 0 0  0 0 0 0.0440443841 0" type="matrix" in="shadowBlurOuter1"></feColorMatrix>
        </filter>
        <path d="M491.490366,313.313223 C500.496837,308.15321 509.265862,302.060581 517.59227,295.015623 C527.647507,286.507904 533.23396,279.637983 542.59227,265.015623 C550.167209,253.17978 549.560603,233.541139 532.59227,219.015623 C525.666609,213.087002 519.825485,210.662266 501.59227,207.015623 C467.325485,200.162266 433.59227,207.015623 405.59227,185.015623 C397.553019,178.699068 337,156 272,152 C244.881819,150.331189 183,159 150,198 C117,237 134.716192,265.943628 150,277 C197,311 276.649392,273.134017 297,274 C341.763405,275.904826 340.802448,309.571982 360.479884,323.139009 L189,336 C83.6666667,331.333333 29.3333333,329 26,329 C22.6666667,329 22.6666667,289 26,209 L127,73 L559,108 L633,244 L549,309 L491.490366,313.313223 Z" id="path-9"></path>
        <filter x="-4.8%" y="-9.5%" width="109.5%" height="122.1%" filterUnits="objectBoundingBox" id="filter-10">
            <feMorphology radius="3.5" operator="dilate" in="SourceAlpha" result="shadowSpreadOuter1"></feMorphology>
            <feOffset dx="0" dy="4" in="shadowSpreadOuter1" result="shadowOffsetOuter1"></feOffset>
            <feGaussianBlur stdDeviation="5.5" in="shadowOffsetOuter1" result="shadowBlurOuter1"></feGaussianBlur>
            <feColorMatrix values="0 0 0 0 0   0 0 0 0 0   0 0 0 0 0  0 0 0 0.26916327 0" type="matrix" in="shadowBlurOuter1"></feColorMatrix>
        </filter>
        <path d="M-733,-123 L707,-123 L707,777 L-733,777 L-733,-123 Z M117,181 C106.736137,188.946217 85.630362,204.922931 79,225 C72.8920331,243.49523 77,261 82,275 C85.4475227,284.653064 97.8358005,304.500569 126,311 C169.335801,321.000569 218,306 228,304 C246.327669,300.334466 273.649392,292.134017 294,293 C341,295 341,313 364,325 C376.5618,331.553983 394.023365,336.217655 420,335 C451.985879,333.500662 487.887467,320.478161 518,295 C528.055237,286.492282 533.641689,279.62236 543,265 C550.574939,253.164157 549.968333,233.525516 533,219 C526.074339,213.07138 520.233215,210.646643 502,207 C467.733215,200.146643 444,208 411,189 C390.03588,176.929749 366.1811,150.219865 345,138 C332.047721,130.527532 306.143186,123.372592 279,123 C251.656801,122.624663 223.066854,129.080879 208,135 C177.976504,146.794945 148,157 117,181 Z M310,331 C295.815578,329.629914 271.586999,332.541479 256,343 C242.230987,352.238694 236.239424,368.225475 235,380 C233.642494,392.896307 239,406 246,413 C253,420 273.507441,422.667753 287,422 C294.420405,421.632761 310.734029,418 321,418 C329,418 334.998163,416.308955 376,429 C397.998163,435.808955 412,461 433,461 C445.845725,461 460.860142,458.113547 470,454 C486.86332,446.410378 502.47904,431.120117 510,418 C514.677395,409.840407 523.64234,395.464254 528,380 C532.126829,365.354908 529.891175,349.566358 526,343 C521.42604,335.281443 515.534283,331.62672 508,330 C502.977145,328.91552 493.977145,330.91552 481,336 C463.754752,344.286435 451.421419,349.953102 444,353 C423.567605,361.388615 407.657179,366.027534 404,366 C386.65588,365.869423 373.684313,359.122875 369,356 C345,340 321.531238,332.113813 310,331 Z M165,438 C147.857469,442.799909 136,452 129,461 C112.111319,482.714019 109.214797,504.399978 126,525 C130.819909,530.915343 141.479443,542.005317 160,542 C180.136885,541.994219 209.574009,529.305874 224,521 C246,508.333333 269.666667,503 295,505 C318.957991,508.604006 333.957991,508.604006 340,505 C349.063014,499.593992 359,477 351,463 C340.931532,445.380181 326,448 283,448 C267.916711,448 234.906087,440.080152 224,438 C198.624756,433.1601 182.485056,433.104184 165,438 Z" id="path-11"></path>
        <filter x="-0.9%" y="-1.2%" width="101.8%" height="102.9%" filterUnits="objectBoundingBox" id="filter-12">
            <feMorphology radius="1.5" operator="dilate" in="SourceAlpha" result="shadowSpreadOuter1"></feMorphology>
            <feOffset dx="0" dy="2" in="shadowSpreadOuter1" result="shadowOffsetOuter1"></feOffset>
            <feGaussianBlur stdDeviation="2.5" in="shadowOffsetOuter1" result="shadowBlurOuter1"></feGaussianBlur>
            <feColorMatrix values="0 0 0 0 0.223529412   0 0 0 0 0.219607843   0 0 0 0 0.623529412  0 0 0 0.411316803 0" type="matrix" in="shadowBlurOuter1"></feColorMatrix>
        </filter>
        <path d="M-733,-123 L707,-123 L707,777 L-733,777 L-733,-123 Z M326.034045,82.0520496 C316.432897,73.8910737 283.465753,66.2064095 251.034045,72.0520496 C215.907774,78.3833702 180.832516,99.1093333 161.034045,112.05205 C131.827071,131.145321 104.312474,154.77362 89.0340449,170.05205 C63.9099754,195.176119 44.3757156,224.736376 36.0340449,249.05205 C32.1775888,260.293482 27.5574835,273.674566 28.0340449,285.05205 C28.3795018,293.29953 29.8895781,306.005153 38.0340449,316.05205 C46.5859583,326.601567 62.0770421,334.427879 75.0340449,340.05205 C96.0273354,349.164485 123.798405,351.831755 145.034045,366.05205 C154.209693,372.196457 153.607965,385.646246 145.034045,394.05205 C128.6926,410.073074 103.191555,417.52088 83.0340449,431.05205 C76.5152181,435.427955 37.0738136,452.94474 38.0340449,487.05205 C38.253316,494.840537 39.0400332,518.056707 75.0340449,546.05205 C84.0340449,553.05205 117.827396,580.543276 161.034045,583.05205 C169.868171,583.564999 184.903001,581.073361 202.034045,572.05205 C218.0284,563.629326 235.538418,549.071065 260.034045,538.05205 C268.156999,534.398052 291.301988,525.014411 320.034045,522.05205 C333.327523,520.681452 363.907231,523.894943 408.034045,519.05205 C420.521104,517.681602 491.286127,510.148312 552.034045,484.05205 C577.756739,473.002022 603.362775,458.860402 611.034045,431.05205 C619.362775,400.860402 596.302782,393.940249 579.034045,364.05205 C553.034045,319.05205 555,282 558,268 C560,257 588.527565,212.435114 595.034045,195.05205 C598.101153,186.857798 601.168893,168.462056 579.034045,161.05205 C561.484934,155.177195 515.034045,158.05205 487.034045,154.05205 C474.334993,152.237899 442.006885,151.525516 396.034045,131.05205 C372.609579,120.620238 352.938188,104.920571 326.034045,82.0520496 Z M434.906186,115.190213 C485.535965,130.66929 533.383549,120.96255 541.776757,93.5096037 C550.169965,66.056657 515.93046,31.2533755 465.300681,15.7742987 C414.670903,0.295221995 366.823318,10.0019615 358.43011,37.4549082 C350.036902,64.907855 384.276407,99.7111365 434.906186,115.190213 Z M332.972273,648.570957 C382.108747,642.537757 419.105601,614.548466 415.607059,586.055125 C412.108517,557.561785 369.439405,539.354245 320.302931,545.387445 C271.166457,551.420645 234.169603,579.409937 237.668145,607.903277 C241.166687,636.396617 283.835799,654.604158 332.972273,648.570957 Z" id="path-13"></path>
        <filter x="-1.5%" y="-1.9%" width="103.1%" height="104.9%" filterUnits="objectBoundingBox" id="filter-14">
            <feMorphology radius="2" operator="dilate" in="SourceAlpha" result="shadowSpreadOuter1"></feMorphology>
            <feOffset dx="0" dy="5" in="shadowSpreadOuter1" result="shadowOffsetOuter1"></feOffset>
            <feGaussianBlur stdDeviation="4.5" in="shadowOffsetOuter1" result="shadowBlurOuter1"></feGaussianBlur>
            <feColorMatrix values="0 0 0 0 0   0 0 0 0 0   0 0 0 0 0  0 0 0 0.141559103 0" type="matrix" in="shadowBlurOuter1"></feColorMatrix>
        </filter>
        <filter x="-12.8%" y="-7.4%" width="147.6%" height="122.9%" filterUnits="objectBoundingBox" id="filter-15">
            <feOffset dx="9" dy="7" in="SourceAlpha" result="shadowOffsetOuter1"></feOffset>
            <feGaussianBlur stdDeviation="5" in="shadowOffsetOuter1" result="shadowBlurOuter1"></feGaussianBlur>
            <feColorMatrix values="0 0 0 0 0   0 0 0 0 0   0 0 0 0 0  0 0 0 0.304800725 0" type="matrix" in="shadowBlurOuter1" result="shadowMatrixOuter1"></feColorMatrix>
            <feMerge>
                <feMergeNode in="shadowMatrixOuter1"></feMergeNode>
                <feMergeNode in="SourceGraphic"></feMergeNode>
            </feMerge>
        </filter>
    </defs>
    <g id="Desktop-HD" stroke="none" stroke-width="1" fill="none" fill-rule="evenodd">
        <g id="Rectangle-3">
            <use fill="black" fill-opacity="1" filter="url(#filter-2)" xlink:href="#path-1"></use>
            <use fill="#34339E" fill-rule="evenodd" xlink:href="#path-1"></use>
        </g>
        <g id="stars" transform="translate(159.000000, 221.000000)" fill="#FFFFFF">
            <circle id="Oval-3" cx="178" cy="191" r="1"></circle>
            <circle id="Oval-3" cx="105" cy="191" r="1"></circle>
            <circle id="Oval-3" cx="86" cy="158" r="1"></circle>
            <circle id="Oval-3" cx="86" cy="235" r="1"></circle>
            <circle id="Oval-3" cx="1" cy="243" r="1"></circle>
            <circle id="Oval-3" cx="1" cy="300" r="1"></circle>
            <circle id="Oval-3" cx="55" cy="285" r="1"></circle>
            <circle id="Oval-2" cx="44" cy="2" r="2"></circle>
            <circle id="Oval-2" cx="67" cy="38" r="2"></circle>
            <circle id="Oval-2" cx="17" cy="35" r="2"></circle>
            <circle id="Oval-2" cx="211" cy="11" r="2"></circle>
        </g>
        <g id="Path-2">
            <use fill="black" fill-opacity="1" filter="url(#filter-4)" xlink:href="#path-3"></use>
            <use fill="#436FFC" fill-rule="evenodd" xlink:href="#path-3"></use>
        </g>
        <g id="Group" transform="translate(221.000000, 175.000000)">
            <g id="Steps" transform="translate(8.000000, 29.000000)" stroke="#4FABAF" stroke-linecap="round" stroke-width="4">
                <path d="M67.5,290.5 L99.5,290.5" id="Line-2"></path>
                <path d="M62.5,267.5 L94.5,267.5" id="Line-2"></path>
                <path d="M57.5,243.5 L89.5,243.5" id="Line-2"></path>
                <path d="M55.5,239.5 L87.5,239.5" id="Line-2"></path>
                <path d="M48.5,209.5 L80.5,209.5" id="Line-2"></path>
                <path d="M42.5,183.5 L74.5,183.5" id="Line-2"></path>
                <path d="M37.5,160.5 L69.5,160.5" id="Line-2"></path>
                <path d="M32.5,136.5 L64.5,136.5" id="Line-2"></path>
                <path d="M17.5,73.5 L49.5,73.5" id="Line-2"></path>
                <path d="M12.5,49.5 L44.5,49.5" id="Line-2"></path>
                <path d="M6.5,23.5 L38.5,23.5" id="Line-2"></path>
                <path d="M0.5,1.5 L32.5,1.5" id="Line-2"></path>
            </g>
            <path d="M29.6647081,94 L32.6146378,94 C34.0328501,94 35.2712458,94.9599188 35.624882,96.3333333 L35.8984634,97.3958397 C36.1092313,98.2143977 36.0118677,99.0818664 35.624882,99.8333333 L35.624882,99.8333333 C35.2559431,100.549756 34.5176404,101 33.7118008,101 L18.75,101 C17.7835017,101 17,100.216498 17,99.25 L17,99.25 C17,98.2835017 17.7835017,97.5 18.75,97.5 L24.7625818,97.5 C25.8694997,97.5 26.8542149,96.7969371 27.213645,95.75 L27.213645,95.75 C27.573075,94.7030629 28.5577902,94 29.6647081,94 Z" id="Path-4" fill="#FFFFFF"></path>
            <g id="Line" stroke-linecap="round">
                <use fill="black" fill-opacity="1" filter="url(#filter-6)" xlink:href="#path-5"></use>
                <use stroke="#72ECD8" stroke-width="4" xlink:href="#path-5"></use>
            </g>
            <g id="Line" stroke-linecap="round">
                <use fill="black" fill-opacity="1" filter="url(#filter-8)" xlink:href="#path-7"></use>
                <use stroke="#72ECD8" stroke-width="4" xlink:href="#path-7"></use>
            </g>
        </g>
        <g id="Rectangle-4">
            <use fill="black" fill-opacity="1" filter="url(#filter-10)" xlink:href="#path-9"></use>
            <use fill="#67E3FB" fill-rule="evenodd" xlink:href="#path-9"></use>
        </g>
        <g id="stars" transform="translate(173.000000, 138.000000)" fill="#FFFFFF">
            <circle id="Oval-2" cx="12" cy="162" r="3"></circle>
            <circle id="Oval" cx="63" cy="4" r="4"></circle>
            <circle id="Oval" cx="3" cy="26" r="3"></circle>
        </g>
        <g id="Rectangle-2">
            <use fill="black" fill-opacity="1" filter="url(#filter-12)" xlink:href="#path-11"></use>
            <use fill="#FDFDFE" fill-rule="evenodd" xlink:href="#path-11"></use>
        </g>
        <g id="Rectangle">
            <use fill="black" fill-opacity="1" filter="url(#filter-14)" xlink:href="#path-13"></use>
            <use fill="#39389F" fill-rule="evenodd" xlink:href="#path-13"></use>
        </g>
        <g id="Group" filter="url(#filter-15)" transform="translate(207.000000, 107.000000)">
            <path d="M63.6153846,28 L71,28 L71,18.2222222 C68.9552423,16.3281866 67.3142166,14.6985569 66.0769231,13.3333333 C64.8396295,11.9681097 62.7883475,9.52366529 59.9230769,6 C58.8569788,9.2176717 58.0364659,11.2547087 57.4615385,12.1111111 C56.957903,12.8613181 56.265812,13.5796119 55.3852654,14.2659926 L55.3852353,14.2659539 C55.1421353,14.4554489 55,14.7464581 55,15.0546884 L55,16 C55,16.5522847 55.4477153,17 56,17 L56.2307692,17 L56.2307692,23.1111111 L62.3846154,23.1111111 L63.6153846,28 Z" id="Path-5" fill="#EE9A9B" transform="translate(63.000000, 17.000000) rotate(-2.000000) translate(-63.000000, -17.000000) "></path>
            <path d="M71.0489084,18 L76.6433432,10.3982135 C77.0323453,9.86963258 77.1372643,9.18383746 76.9240904,8.56313034 L76.2459336,6.5885138 C76.1004396,6.16487277 75.8169434,5.80233623 75.4408748,5.55899973 L68.887855,1.31884558 C68.6730698,1.17986813 68.4336158,1.08338864 68.1824768,1.03463852 L63.2015806,0.0677666989 C62.6566289,-0.0380171545 62.092226,0.0874530918 61.6434187,0.414155661 L58.7606634,2.51261456 C57.9631176,3.09317616 57.707996,4.16854748 58.1597612,5.04549628 L58.6177892,5.93460211 L71.0489084,18 Z" id="Path-6" fill="#053380"></path>
            <path d="M2.09662931,68 C1.96779023,72.0671015 1.96779023,75.0671 2.09662931,76.9999955 C2.21642669,78.7972438 2.57060575,81.5170758 3.15916648,85.1594915 L3.15915087,85.159494 C3.23742848,85.6439293 3.65564296,85.999991 4.14636179,85.999991 C6.92967001,85.999991 9.04597635,85.999991 10.4952808,85.999991 C11.9452221,85.999991 14.0627514,85.999991 16.847869,85.999991 L16.847869,85.9999687 C17.3371226,85.9999687 17.7545353,85.6459637 17.8344252,85.1632766 C18.4096813,81.6876332 18.7628504,78.9665395 18.8939323,76.9999955 C19.0353559,74.8783025 19.0353559,71.878304 18.8939323,68 L2.09662931,68 Z" id="Path-9" fill="#FFFFFF"></path>
            <path d="M5.28697804,66 C4.90434065,63.1689014 4.90434065,61.0022348 5.28697804,59.5 C5.86093413,57.2466479 8.16964981,53 10.143489,53 C12.4190969,53 15,57.2944932 15,59.5 C15,61.2333333 15,63.4 15,66" id="Path-11" stroke="#FFFFFF" stroke-linecap="round"></path>
            <path d="M1.43053199,68 L1.13388192,67.5526957 C0.828636488,67.092431 0.954304499,66.4718623 1.41456928,66.1666169 C1.57841665,66.0579541 1.77065994,66 1.96726503,66 L19,66 C19.5522847,66 20,66.4477153 20,67 L20,67 C20,67.5522847 19.5522847,68 19,68 L1.43053199,68 Z" id="Path-10" fill="#142374"></path>
            <path d="M39.7704369,36.6996111 L36.488844,33.3227779 C36.259093,33.0863589 35.9275822,32.9783639 35.6026605,33.0340892 L29.6019177,34.0632392 C29.2541864,34.1228764 29,34.4243679 29,34.7771762 L29,34.7771762 C29,35.1483585 29.2191579,35.4845328 29.5587801,35.6343095 L36.9508083,38.8942654 C37.1809389,38.9957553 37.4408628,39.0067983 37.6787724,38.9251936 L39.3777408,38.3424346 C39.9001482,38.1632449 40.1783812,37.5944881 39.9991915,37.0720807 C39.9513397,36.9325743 39.8732223,36.8053796 39.7704369,36.6996111 Z" id="Path-7" fill="#EE9A9B"></path>
            <path d="M14.5309763,51.8261453 L11.4806592,49.9978172 L4.38834356,50.9087586 C4.11445115,50.9439375 3.92093562,51.1944893 3.95611452,51.4683817 C3.97663612,51.6281567 4.07287905,51.7682582 4.21465337,51.8447384 L9.01380219,54.433642 L14.4226439,54.9978172 L14.981669,52.9468412 C15.099513,52.5144902 14.9153424,52.0565303 14.5309763,51.8261453 Z" id="Path-8" fill="#EE9A9B" transform="translate(9.484469, 52.497817) rotate(8.000000) translate(-9.484469, -52.497817) "></path>
            <path d="M43.0824333,160.120198 C41.227327,144.799036 40.0553475,133.316545 39.5664947,125.672727 C39.0683291,117.883292 38.6658064,104.483292 38.3589268,85.4727273 L34.7362229,85.4727273 C37.1395109,75.9802704 39.1521241,69.0772401 40.7740626,64.7636364 C42.3960012,60.4500327 44.8111371,55.5773054 48.0194703,50.1454545 L41.3778466,56.2363636 C34.7183565,57.0484848 29.6868234,57.4545455 26.2832474,57.4545455 C23.0599046,57.4545455 18.9179853,57.0903514 13.8574893,56.3619632 L13.8574954,56.3619208 C13.3653398,56.2910818 13,55.8693914 13,55.3721637 L13,53.5818182 C13,53.0295334 13.4477153,52.5818182 14,52.5818182 C18.0944158,52.5818182 22.1888316,52.5818182 26.2832474,52.5818182 C28.7966498,52.5818182 31.3100522,52.5818182 33.8234546,52.5818182 L33.8234546,52.5818182 C34.4032052,52.5818182 34.9544284,52.3302487 35.3343021,51.8922914 L43.1891985,42.8363636 L36.7064124,39.5664805 C36.4598581,39.4421198 36.3608006,39.1414337 36.4851613,38.8948794 C36.5237712,38.8183324 36.5814151,38.7529991 36.6525564,38.7051547 L39.3463681,36.8934955 C39.4840314,36.8009133 39.6586521,36.7826415 39.8124988,36.8447211 L45.6043344,39.1818182 L53.5038703,28.9360014 C53.8556119,28.4797873 54.3869878,28.1973958 54.9619134,28.1611472 L73.378397,27 L75.5660797,38.0345559 C75.7123535,38.7723535 75.5761442,39.5381797 75.1844405,40.180293 L66.1329894,55.0181818 L67.3405573,74.5090909 L60.0951497,78.1636364 C64.043829,77.7389266 66.0564422,77.7389266 66.1329894,78.1636364 C66.2095366,78.5883462 66.6120592,91.9883462 67.3405573,118.363636 C70.3719315,125.356456 72.3845448,130.635244 73.378397,134.2 C74.338762,137.644644 75.8745372,144.964704 77.9857228,156.160181 L77.9856884,156.160187 C78.088028,156.702888 77.7310451,157.225796 77.1883448,157.328135 C77.12725,157.339656 77.065214,157.345455 77.0030424,157.345455 L74.0707455,157.345455 C73.6542234,157.345455 73.2813204,157.087276 73.1347261,156.697403 L60.0951497,122.018182 L56.4724459,91.5636364 L54.05731,91.5636364 L49.2270382,122.018182 L48.0494889,160.030963 C48.0327618,160.570933 47.5901978,161 47.0499683,161 L44.0751414,160.999959 C43.5693677,160.999959 43.143229,160.622305 43.0824333,160.120198 Z" id="Path-3" fill="#FFFFFF"></path>
            <path d="M74.0572164,159.999686 L77.6212944,159.999686 C78.4158168,159.999686 79.1349952,160.469988 79.4535282,161.197864 L80.8394184,164.364743 C80.9794494,164.684726 81.0332396,165.035802 80.9954357,165.383032 L80.8786093,166.456086 C80.7804565,167.357623 79.9991698,168.02805 79.0931833,167.988173 L64.8178252,167.359832 C63.8009434,167.315073 62.9995574,166.477638 62.9995574,165.459771 L62.9995574,165.459771 C62.9995574,164.454597 63.8144118,163.639743 64.8195857,163.639743 L69.9954723,163.639743 C70.8843065,163.639743 71.6664943,163.053147 71.9154309,162.199885 L72.1372578,161.439544 C72.3861944,160.586282 73.1683823,159.999686 74.0572164,159.999686 Z" id="Path-4" fill="#FFFFFF" transform="translate(72.003371, 163.994774) rotate(-5.000000) translate(-72.003371, -163.994774) "></path>
        </g>
        <g id="stars" transform="translate(311.000000, 279.000000)" fill="#FFFFFF">
            <circle id="Oval-3" cx="47" cy="1" r="1"></circle>
            <circle id="Oval-3" cx="73" cy="21" r="1"></circle>
            <circle id="Oval-3" cx="58" cy="94" r="1"></circle>
            <circle id="Oval-3" cx="27" cy="69" r="1"></circle>
            <circle id="Oval-3" cx="1" cy="95" r="1"></circle>
        </g>
    </g>
</svg>