<?xml version="1.0" encoding="UTF-8"?>
<svg width="775px" height="532px" viewBox="0 0 775 532" version="1.1" xmlns="http://www.w3.org/2000/svg" xmlns:xlink="http://www.w3.org/1999/xlink" style="background: #691A9A;">
    <!-- Generator: Sketch 49.2 (51160) - http://www.bohemiancoding.com/sketch -->
    <title>Desktop HD</title>
    <desc>Created with Sketch.</desc>
    <defs>
        <path d="M-535,-169 L905,-169 L905,731 L-535,731 L-535,-169 Z M348,202 C338.787092,208.555338 322.822707,221.425315 313,236 C301.856036,252.535132 297.270865,271.04313 295,281 C292.692541,291.117321 289.554142,307.777591 291,324 C292.231292,337.814998 308.897545,372.908373 319,382 C330.153464,392.037475 345.189272,402.761914 353,406 C382.305224,418.149038 414.229146,416.878806 438.07784,406 C460,396 466.75605,383.397599 479,369 C484.161262,362.930898 504.176064,340.638339 529,324 C547.145369,311.837996 568.617308,302.775745 581,289 C591.677054,277.121777 590.320936,258.884881 588,250 C583.200878,231.628259 572.355895,217.129703 567,209 C559.053905,196.938637 541.720572,185.521014 515,174.747132 C487.500749,168.556239 467.834082,165.640528 456,166 C408.512451,167.442481 373.234036,184.045013 348,202 Z" id="path-1"></path>
        <filter x="-1.9%" y="-2.7%" width="104.1%" height="106.6%" filterUnits="objectBoundingBox" id="filter-2">
            <feMorphology radius="2.5" operator="dilate" in="SourceAlpha" result="shadowSpreadOuter1"></feMorphology>
            <feOffset dx="2" dy="5" in="shadowSpreadOuter1" result="shadowOffsetOuter1"></feOffset>
            <feGaussianBlur stdDeviation="6.5" in="shadowOffsetOuter1" result="shadowBlurOuter1"></feGaussianBlur>
            <feColorMatrix values="0 0 0 0 0   0 0 0 0 0   0 0 0 0 0  0 0 0 0.189311594 0" type="matrix" in="shadowBlurOuter1"></feColorMatrix>
        </filter>
        <path d="M-535,-169 L905,-169 L905,731 L-535,731 L-535,-169 Z M244,221 C228.591289,277.732073 238.591289,333.39874 274,388 C287.575645,404.424966 297.575645,415.424966 304,421 C312.105211,428.033675 321.143742,432.886245 328,437 C338,443 352.47104,450.361702 377,455 C391.504666,457.742756 434.618816,463.648024 456,451 C505.618816,421.648024 502.060583,402.983719 530,360 C556,320 565,323 590,310 C597.230807,306.23998 617.528309,298.863857 621,292 C626.337721,281.446829 631.507781,256.049263 628,236 C627.720689,234.403556 625.647839,211.873766 613,195 C600.648356,178.521394 577.794935,167.716827 571,164 C556.54024,156.090517 515.78592,158.047893 503,141 C496.488679,132.318238 479.14781,106.148653 464,101 C455.487498,98.1066497 441.820831,101.439983 423,111 C402.203144,123.623612 386.869811,131.956945 377,136 C362.195284,142.064583 355,145 340,145 C296.006017,145 253.886933,184.598109 244,221 Z" id="path-3"></path>
        <filter x="-1.9%" y="-2.7%" width="104.1%" height="106.6%" filterUnits="objectBoundingBox" id="filter-4">
            <feMorphology radius="2.5" operator="dilate" in="SourceAlpha" result="shadowSpreadOuter1"></feMorphology>
            <feOffset dx="2" dy="5" in="shadowSpreadOuter1" result="shadowOffsetOuter1"></feOffset>
            <feGaussianBlur stdDeviation="6.5" in="shadowOffsetOuter1" result="shadowBlurOuter1"></feGaussianBlur>
            <feColorMatrix values="0 0 0 0 0   0 0 0 0 0   0 0 0 0 0  0 0 0 0.189311594 0" type="matrix" in="shadowBlurOuter1"></feColorMatrix>
        </filter>
        <path d="M-535,-169 L905,-169 L905,731 L-535,731 L-535,-169 Z M356,66.3634756 C333.422841,66.3634756 308.22345,77.2114172 287,93.3634756 C265.422279,109.785151 247.926066,131.650356 238,148.363476 C218.310837,181.515313 207,224.363476 207,257.363476 C207,279.209885 211.152171,338.776863 272,408.363476 C305.152171,446.276863 364.634503,481.037785 396,485.363476 C445.292436,492.161513 481.842762,489.266064 511,474.363476 C551.934379,453.44146 580.95167,406.868552 573,370.363476 C569,352 553,341 542,334 C527.594981,324.83317 511,312 497,296.363476 C485.721042,283.766068 477,255 475,242.363476 C472.187008,224.590253 469.638425,173.164641 465,138.363476 C464.054696,131.271052 460.722399,115.596154 450,101.363476 C446.162046,96.2690591 438.162046,89.2690591 426,80.3634756 C407.132174,72.3267864 391.798841,67.6601197 380,66.3634756 C372.558228,65.5456555 364.217848,66.3634756 356,66.3634756 Z M579,303 C623.18278,303 659,267.18278 659,223 C659,178.81722 623.18278,143 579,143 C534.81722,143 499,178.81722 499,223 C499,267.18278 534.81722,303 579,303 Z" id="path-5"></path>
        <filter x="-1.9%" y="-2.7%" width="104.1%" height="106.6%" filterUnits="objectBoundingBox" id="filter-6">
            <feMorphology radius="2.5" operator="dilate" in="SourceAlpha" result="shadowSpreadOuter1"></feMorphology>
            <feOffset dx="2" dy="5" in="shadowSpreadOuter1" result="shadowOffsetOuter1"></feOffset>
            <feGaussianBlur stdDeviation="6.5" in="shadowOffsetOuter1" result="shadowBlurOuter1"></feGaussianBlur>
            <feColorMatrix values="0 0 0 0 0   0 0 0 0 0   0 0 0 0 0  0 0 0 0.189311594 0" type="matrix" in="shadowBlurOuter1"></feColorMatrix>
        </filter>
        <path d="M-535,-169 L905,-169 L905,731 L-535,731 L-535,-169 Z M185,168 C177.6202,186.601909 171.286867,198.935242 166,205 C151.140867,222.045452 126.126143,239.810785 120,249 C99.3956586,279.906512 92.0623253,308.239845 98,334 C110.266506,375.392468 130.933173,407.392468 160,430 C189.066827,452.607532 239.733494,473.940865 312,494 C438.582165,518.561546 521.582165,521.228212 561,502 C581.012797,492.23766 609.462861,477.723253 623,455 C637.196251,431.17037 636,399.148137 636,391 C636,375.899942 629,358.736312 629,349 C629,334 638,319 687,304 C725.758194,292.135247 752.452683,278.002608 755,233 C756.952683,198.502608 728.833289,164.817318 703,145 C677.166711,125.182682 673.698945,121.018141 623,107 C565.198945,91.0181414 506.312598,88.8291178 485,81 C463.687402,73.1708822 444,63 409,44 C396.311206,37.1117976 362.747193,22.3703222 329,25 C291.803048,27.8984929 253.961661,49.4067094 234,69 C227.416537,75.461973 211.921288,93.0132742 202,117 C197.924094,126.85433 192.257427,143.85433 185,168 Z M106.5,202 C133.838095,202 156,179.838095 156,152.5 C156,125.161905 133.838095,103 106.5,103 C79.1619049,103 57,125.161905 57,152.5 C57,179.838095 79.1619049,202 106.5,202 Z" id="path-7"></path>
        <filter x="-1.9%" y="-2.7%" width="104.1%" height="106.6%" filterUnits="objectBoundingBox" id="filter-8">
            <feMorphology radius="2.5" operator="dilate" in="SourceAlpha" result="shadowSpreadOuter1"></feMorphology>
            <feOffset dx="2" dy="5" in="shadowSpreadOuter1" result="shadowOffsetOuter1"></feOffset>
            <feGaussianBlur stdDeviation="6.5" in="shadowOffsetOuter1" result="shadowBlurOuter1"></feGaussianBlur>
            <feColorMatrix values="0 0 0 0 0   0 0 0 0 0   0 0 0 0 0  0 0 0 0.189311594 0" type="matrix" in="shadowBlurOuter1"></feColorMatrix>
        </filter>
        <filter x="-13.3%" y="-13.6%" width="126.7%" height="127.3%" filterUnits="objectBoundingBox" id="filter-9">
            <feGaussianBlur stdDeviation="2" in="SourceGraphic"></feGaussianBlur>
        </filter>
        <linearGradient x1="44.3589086%" y1="50%" x2="38.5389893%" y2="100%" id="linearGradient-10">
            <stop stop-color="#E8F2F2" offset="0%"></stop>
            <stop stop-color="#B0C8D1" offset="100%"></stop>
        </linearGradient>
        <path d="M421,318 C398.400108,324.048881 383.066774,325.715548 375,323 C355.871937,316.56085 307,277 296,268 C275.041399,250.852053 238.996754,234.657302 209,244 C203.801996,245.618955 188.562245,252.782602 178,262 C169.145346,269.727227 159,294 159,299 C159,301.349276 158.882139,316.877126 165,331 C167.60607,337.016025 171,344 178,350 C183.224056,354.477762 193.32183,363.365868 207,369 C220.65651,374.62521 237.887165,377 251,377 C267.810178,377 275.879687,368.814705 278,360 C278.268589,358.883404 279.657273,348.63761 272,341 C264.417765,333.437235 246.824239,331.478894 240,331 C230.144009,330.308352 224.477342,330.308352 223,331" id="path-11"></path>
        <filter x="-5.5%" y="-15.8%" width="120.2%" height="134.6%" filterUnits="objectBoundingBox" id="filter-12">
            <feMorphology radius="2.5" operator="dilate" in="SourceAlpha" result="shadowSpreadOuter1"></feMorphology>
            <feOffset dx="15" dy="2" in="shadowSpreadOuter1" result="shadowOffsetOuter1"></feOffset>
            <feMorphology radius="2.5" operator="erode" in="SourceAlpha" result="shadowInner"></feMorphology>
            <feOffset dx="15" dy="2" in="shadowInner" result="shadowInner"></feOffset>
            <feComposite in="shadowOffsetOuter1" in2="shadowInner" operator="out" result="shadowOffsetOuter1"></feComposite>
            <feGaussianBlur stdDeviation="4.5" in="shadowOffsetOuter1" result="shadowBlurOuter1"></feGaussianBlur>
            <feColorMatrix values="0 0 0 0 0   0 0 0 0 0   0 0 0 0 0  0 0 0 0.197350543 0" type="matrix" in="shadowBlurOuter1"></feColorMatrix>
        </filter>
        <filter x="-5.7%" y="-6.3%" width="122.9%" height="124.7%" filterUnits="objectBoundingBox" id="filter-13">
            <feOffset dx="14" dy="13" in="SourceAlpha" result="shadowOffsetOuter1"></feOffset>
            <feGaussianBlur stdDeviation="5.5" in="shadowOffsetOuter1" result="shadowBlurOuter1"></feGaussianBlur>
            <feColorMatrix values="0 0 0 0 0   0 0 0 0 0   0 0 0 0 0  0 0 0 0.402428668 0" type="matrix" in="shadowBlurOuter1" result="shadowMatrixOuter1"></feColorMatrix>
            <feMerge>
                <feMergeNode in="shadowMatrixOuter1"></feMergeNode>
                <feMergeNode in="SourceGraphic"></feMergeNode>
            </feMerge>
        </filter>
        <linearGradient x1="12.7958895%" y1="50%" x2="77.4365682%" y2="73.8854381%" id="linearGradient-14">
            <stop stop-color="#A4B7BA" offset="0%"></stop>
            <stop stop-color="#DFE8E9" offset="100%"></stop>
        </linearGradient>
        <linearGradient x1="12.6237219%" y1="6.71805304%" x2="82.5670866%" y2="97.1847862%" id="linearGradient-15">
            <stop stop-color="#FFFFFF" offset="0%"></stop>
            <stop stop-color="#BDCDD3" offset="100%"></stop>
        </linearGradient>
        <linearGradient x1="79.2480307%" y1="17.4966632%" x2="7.25737401%" y2="87.3280011%" id="linearGradient-16">
            <stop stop-color="#3A5E9D" offset="0%"></stop>
            <stop stop-color="#273540" offset="100%"></stop>
        </linearGradient>
    </defs>
    <g id="Desktop-HD" stroke="none" stroke-width="1" fill="none" fill-rule="evenodd">
        <g id="Rectangle-5">
            <use fill="black" fill-opacity="1" filter="url(#filter-2)" xlink:href="#path-1"></use>
            <use fill="#AD25FF" fill-rule="evenodd" xlink:href="#path-1"></use>
        </g>
        <g id="Rectangle-3">
            <use fill="black" fill-opacity="1" filter="url(#filter-4)" xlink:href="#path-3"></use>
            <use fill="#BA68C8" fill-rule="evenodd" xlink:href="#path-3"></use>
        </g>
        <g id="Rectangle-2">
            <use fill="black" fill-opacity="1" filter="url(#filter-6)" xlink:href="#path-5"></use>
            <use fill="#F7F7FA" fill-rule="evenodd" xlink:href="#path-5"></use>
        </g>
        <g id="Rectangle">
            <use fill="black" fill-opacity="1" filter="url(#filter-8)" xlink:href="#path-7"></use>
            <use fill="#691A9A" fill-rule="evenodd" xlink:href="#path-7"></use>
        </g>
        <g id="Group" transform="translate(564.000000, 161.000000)">
            <circle id="Oval" fill="#879298" cx="24.5" cy="24.5" r="24.5"></circle>
            <path d="M3,14.7111111 C6.46000803,9.7569207 9.39334137,6.49766145 11.8,4.93333333 C14.2066586,3.36900522 17.7918438,2.39122744 22.5555556,2 C27.243287,2.02552997 30.5025463,2.35145589 32.3333333,2.97777778 C35.0795139,3.9172606 37.6318422,4.85406439 41.1333333,8.35555556 C44.4762866,11.6985088 46.1766942,14.1281405 47,16.6666667 C47.8233058,19.2051929 47.9777778,21.5769311 47.9777778,26.4444444 C47.9777778,30.3769311 44.9792035,36.0105028 44.0666667,38.1777778 C43.4583088,39.6226278 40.8509014,42.2300352 36.2444444,46 C39.8844533,40.9008649 41.5140829,35.6860501 41.1333333,30.3555556 C40.72668,24.6624084 40.2685592,21.1642066 36.2444444,16.6666667 C31.9574481,11.8753178 27.4444444,9.82222222 21.5777778,9.82222222 C17.2537304,9.82222222 11.0611378,11.4518519 3,14.7111111 Z" id="Path-3" fill="#D8D8D8" opacity="0.741183036" filter="url(#filter-9)"></path>
        </g>
        <g id="Group-2" opacity="0.631584821" transform="translate(570.000000, 171.000000)">
            <circle id="Oval-2" fill="#AEB9C0" cx="3" cy="15" r="3"></circle>
            <circle id="Oval-2-Copy" fill="#657073" cx="21" cy="27" r="3"></circle>
            <circle id="Oval-2-Copy-2" fill="#657073" cx="30" cy="18" r="3"></circle>
            <circle id="Oval-2-Copy-3" fill="#657073" cx="27" cy="4" r="4"></circle>
        </g>
        <g id="Group-5" transform="translate(401.000000, 89.000000)" fill="#1C252F">
            <circle id="Oval-3-Copy-3" cx="1.5" cy="17.5" r="1.5"></circle>
            <circle id="Oval-3-Copy-4" cx="8" cy="10" r="1"></circle>
            <circle id="Oval-3-Copy-5" opacity="0.585602679" cx="2" cy="1" r="1"></circle>
        </g>
        <g id="Group-4" transform="translate(371.000000, 98.000000)" fill="#1C252F">
            <ellipse id="Oval-3" cx="6" cy="5.5" rx="1" ry="1.5"></ellipse>
            <ellipse id="Oval-3-Copy" cx="2" cy="1.5" rx="1" ry="1.5"></ellipse>
            <circle id="Oval-3-Copy-2" cx="1" cy="11" r="1"></circle>
        </g>
        <g id="Group-3" transform="translate(296.907577, 126.299288) rotate(184.000000) translate(-296.907577, -126.299288) translate(292.407577, 120.299288)" fill="#1C252F">
            <circle id="Oval-3-Copy-6" cx="7.5" cy="5.5" r="1.5"></circle>
            <circle id="Oval-3-Copy-7" cx="2.5" cy="1.5" r="1.5"></circle>
            <circle id="Oval-3-Copy-8" cx="1" cy="11" r="1"></circle>
        </g>
        <g id="Group-3-Copy-2" transform="translate(603.151725, 236.790763) rotate(184.000000) translate(-603.151725, -236.790763) translate(598.651725, 227.290763)" fill="#1C252F">
            <ellipse id="Oval-3-Copy-6" cx="7.45835839" cy="8.70833333" rx="1.49167168" ry="2.375"></ellipse>
            <ellipse id="Oval-3-Copy-7" cx="2.48611946" cy="2.375" rx="1.49167168" ry="2.375"></ellipse>
            <ellipse id="Oval-3-Copy-8" cx="0.994447785" cy="17.4166667" rx="1" ry="1.58333333"></ellipse>
        </g>
        <g id="Group-3-Copy-3" transform="translate(331.907577, 179.299288) rotate(184.000000) translate(-331.907577, -179.299288) translate(327.407577, 173.299288)" fill="#1C252F">
            <circle id="Oval-3-Copy-6" cx="7.5" cy="5.5" r="1.5"></circle>
            <circle id="Oval-3-Copy-7" cx="2.5" cy="1.5" r="1.5"></circle>
            <circle id="Oval-3-Copy-8" cx="1" cy="11" r="1"></circle>
        </g>
        <g id="Group-3-Copy-4" transform="translate(301.858500, 381.734372) rotate(283.000000) translate(-301.858500, -381.734372) translate(297.358500, 375.734372)" fill="#1C252F">
            <circle id="Oval-3-Copy-6" cx="7.5" cy="5.5" r="1.5"></circle>
            <circle id="Oval-3-Copy-7" cx="2.5" cy="1.5" r="1.5"></circle>
            <circle id="Oval-3-Copy-8" cx="1" cy="11" r="1"></circle>
        </g>
        <g id="Group-3-Copy-5" transform="translate(350.858500, 379.734372) rotate(283.000000) translate(-350.858500, -379.734372) translate(346.358500, 373.734372)" fill="#1C252F">
            <circle id="Oval-3-Copy-6" cx="7.5" cy="5.5" r="1.5"></circle>
            <circle id="Oval-3-Copy-7" cx="2.5" cy="1.5" r="1.5"></circle>
            <circle id="Oval-3-Copy-8" cx="1" cy="11" r="1"></circle>
        </g>
        <g id="Group-3-Copy-6" transform="translate(395.935390, 441.059518) rotate(283.000000) translate(-395.935390, -441.059518) translate(391.435390, 438.059518)" fill="#1C252F">
            <ellipse id="Oval-3-Copy-6" cx="7.5" cy="2.39399259" rx="1.5" ry="1"></ellipse>
            <ellipse id="Oval-3-Copy-7" cx="2.5" cy="0.652907069" rx="1.5" ry="1"></ellipse>
            <ellipse id="Oval-3-Copy-8" cx="1" cy="4.78798517" rx="1" ry="1"></ellipse>
        </g>
        <g id="Group-3-Copy-7" transform="translate(531.408598, 393.785631) rotate(283.000000) translate(-531.408598, -393.785631) translate(528.908598, 387.785631)" fill="#1C252F">
            <ellipse id="Oval-3-Copy-6" cx="3.75169895" cy="5.5" rx="1" ry="1.5"></ellipse>
            <ellipse id="Oval-3-Copy-7" cx="1.25056632" cy="1.5" rx="1" ry="1.5"></ellipse>
            <ellipse id="Oval-3-Copy-8" cx="0.500226527" cy="11" rx="1" ry="1"></ellipse>
        </g>
        <g id="Group-3-Copy" transform="translate(223.907577, 203.299288) rotate(184.000000) translate(-223.907577, -203.299288) translate(219.407577, 197.299288)" fill="#1C252F">
            <circle id="Oval-3-Copy-6" cx="7.5" cy="5.5" r="1.5"></circle>
            <circle id="Oval-3-Copy-7" cx="2.5" cy="1.5" r="1.5"></circle>
            <circle id="Oval-3-Copy-8" cx="1" cy="11" r="1"></circle>
        </g>
        <g id="Path-15">
            <use fill="black" fill-opacity="1" filter="url(#filter-12)" xlink:href="#path-11"></use>
            <use stroke="url(#linearGradient-10)" stroke-width="5" xlink:href="#path-11"></use>
        </g>
        <g id="Astronaute" filter="url(#filter-13)" transform="translate(342.000000, 178.000000)">
            <path d="M74,118 L74,135.409529 C74,139.333399 76.5421834,142.805025 80.2829747,143.989609 L130.676623,159.947597 C132.814811,160.62469 135.128769,160.47903 137.165172,159.539152 L143.251877,156.729903 C145.631441,155.631643 147.414085,153.550703 148.134069,151.030759 L149,148 L144,144 L142,151 L74,118 Z" id="Path-6" fill="#879FC0"></path>
            <path d="M66,170 C69.3648088,167.672962 71.8648088,166.672962 73.5,167 C75.1351912,167.327038 77.6351912,169.327038 81,173 L73.5,183 L66,170 Z" id="Path-9" fill="#ABC5CB"></path>
            <path d="M61,112 C61.6929802,116.923974 62.6929802,120.257307 64,122 C65.3070198,123.742693 68.9736865,126.076026 75,129 L84,115 L61,112 Z" id="Path-10" fill="#ABC5CB"></path>
            <path d="M17.7039337,116.537025 C35.9582281,109.438631 47.7235835,106.592956 53,108 C62.1563716,110.441699 70.7538155,116.795891 78.7923319,127.062577 L78.7923295,127.062579 C80.3082728,128.998721 82.3824287,130.422409 84.7341072,131.140977 L117,141 C117.877988,147.079874 113.211321,154.413207 103,163 C99.3700829,166.05243 92.0596797,169.936895 81.0687906,174.653393 L81.0687923,174.653397 C76.3953281,176.658911 70.9559466,175.138325 68,171 L64.1641739,165.629843 C63.8431649,165.180431 63.2186148,165.076339 62.7692023,165.397348 C62.5928097,165.523343 62.4621339,165.703243 62.3968578,165.90995 L57.1590467,182.496352 C57.0595295,182.81149 57.1221347,183.155444 57.326311,183.415305 L67.7145354,196.636663 C67.8965944,196.868374 68.1715847,197.00799 68.4660855,197.018232 C79.5874978,197.405041 92.0988027,194.398964 106,188 C116.356402,183.232767 125.480314,173.691456 130,168 C132.92735,164.313708 136.156938,158.230885 139.688764,149.751531 L139.688701,149.751505 C139.794893,149.496556 140.087655,149.375965 140.342603,149.482156 C140.41487,149.512256 140.47906,149.558903 140.530007,149.618341 L142.409378,151.810941 C142.589089,152.020604 142.904739,152.044885 143.114402,151.865174 C143.186207,151.803627 143.239084,151.722978 143.266896,151.632588 L144.701299,146.970738 C144.86372,146.44287 145.42331,146.146616 145.951179,146.309037 C145.95449,146.310056 145.957797,146.311092 145.961098,146.312146 C153.091111,148.587392 158.770745,149.483343 163,149 C169.626367,148.242701 173.049261,147.838621 180,142 C185.549261,137.338621 186.523058,133.274792 188,128 C188.984628,124.483472 189.317961,119.816805 189,114 C187.682091,107.452304 183.348757,101.452304 176,96 C171.523136,92.6784558 160.496822,90.6669693 157,91 C155.178851,91.1734428 152.542707,92.0250935 149.091568,93.5549522 L149.091568,93.5549518 C147.576868,94.2264047 145.804641,93.5428178 145.133188,92.0281177 C145.082188,91.9130696 145.038478,91.7949263 145.002316,91.6743883 L143,85 C145.277303,80.1573651 147.277303,76.8240317 149,75 C150.722697,73.1759683 154.389363,70.5093016 160,67 C166.99843,64.1113015 172.331763,62.4446348 176,62 C179.435771,61.583543 184.624704,61.8495744 191.566802,62.7980943 L191.566801,62.7980996 C192.475529,62.9222619 193.39113,62.6239136 194.052257,61.9882142 L217.564881,39.3799222 C217.962986,38.9971288 217.975399,38.3640855 217.592605,37.9659804 C217.443502,37.8109127 217.248367,37.7080612 217.036171,37.6726952 L207.46063,36.0767716 C207.168676,36.0281126 206.870165,36.111287 206.64544,36.303909 L200,42 C196.990635,38.6629206 194.657301,36.6629206 193,36 C191.342699,35.3370794 188.676032,35.3370794 185,36 L181,39 C169.61733,40.2917891 161.283997,41.9584558 156,44 C150.716003,46.0415442 144.38267,50.0415442 137,56 C130.697951,61.5138437 126.364617,65.847177 124,69 C121.875062,71.8332505 119.90998,75.619825 118.104753,80.3597237 L118.104768,80.3597295 C117.74806,81.2963215 116.753214,81.8242857 115.777636,81.5947379 L110.897504,80.4464593 C109.843511,80.1984611 109.178287,79.1567133 109.396705,78.0961965 C110.982534,70.3963179 111.850299,65.030919 112,62 C112.364644,54.6172554 110.975285,48.1568355 109.816822,44 C107.866103,37.0003582 102.177123,28.9087685 92.7498834,19.7252309 L92.7499008,19.7252131 C92.2806189,19.2680625 92.0649906,18.6100566 92.1726954,17.9638277 L93.7804829,8.31710266 C93.9133793,7.51972413 93.5531956,6.72074723 92.8676929,6.29230808 L87.5577875,2.9736172 C86.6768655,2.42304094 85.5210848,2.63855364 84.8977896,3.46961381 L66.2847686,28.2869537 C65.6220226,29.170615 65.8011098,30.4242258 66.6847712,31.0869718 C66.7182452,31.1120773 66.7524989,31.1361262 66.7874816,31.1590829 C76.0751305,37.2539229 81.8126367,42.2008952 84,46 C86.3244065,50.0371271 86.9910732,56.3704604 86,65 C84.7349635,70.5201928 83.4016302,74.5201928 82,77 C80.5983698,79.4798072 77.5983698,83.1464739 73,88 C59.864886,83.6556545 50.1982194,81.6556545 44,82 C37.8017806,82.3443455 29.4684473,85.3443455 19,91 L10.874032,82.874032 C10.3383675,82.3383675 9.54603241,82.1513225 8.82736295,82.390879 L3.00173191,84.332756 C1.95384527,84.6820516 1.3875253,85.8146915 1.73682084,86.8625782 C1.74810458,86.8964294 1.76029221,86.9299725 1.77337066,86.9631717 L12.5326083,114.275072 C13.3397912,116.324075 15.6513965,117.335178 17.7039337,116.537025 Z" id="Path-2" fill="url(#linearGradient-14)"></path>
            <path d="M92.5649088,145.891092 L95.6127437,140.392653 C99.1667473,143.472168 101.833414,146.138835 103.612744,148.392653 C105.392073,150.64647 107.392073,153.979803 109.612744,158.392653 C111.88151,163.239108 113.214843,166.905775 113.612744,169.392653 C114.010644,171.87953 114.153846,177.220305 114.04235,185.414975 L106.612744,183.392653 C106.374586,174.590775 105.09099,167.424108 102.761956,161.892653 C99.757657,154.757442 96.3586412,149.423588 92.5649088,145.891092 Z" id="Path-14-Copy-2" fill="url(#linearGradient-15)" transform="translate(103.321933, 162.903814) scale(1, -1) rotate(-29.000000) translate(-103.321933, -162.903814) "></path>
            <path d="M142.257625,28.4668445 L145.305459,22.9684049 C148.859463,26.0479206 151.52613,28.7145873 153.305459,30.9684049 C155.084789,33.2222224 157.084789,36.5555558 159.305459,40.9684049 C161.882957,45.9418117 163.370656,49.671954 163.768557,52.1588317 C164.044974,53.886442 166.967123,58.9166012 168.08509,67.8427222 C168.412647,70.4580165 168.089238,75.1115859 167.114863,81.8034305 L162.252254,86.8388091 C158.049567,64.1233288 154.783706,49.9998607 152.454672,44.4684049 C149.450373,37.333194 146.051357,31.9993406 142.257625,28.4668445 Z" id="Path-14-Copy-3" fill="url(#linearGradient-15)" transform="translate(155.233165, 54.903607) scale(1, -1) rotate(-224.000000) translate(-155.233165, -54.903607) "></path>
            <path d="M147,94 L136.561515,129.111209 C136.251365,130.154442 136.832339,131.254179 137.868894,131.585969 C139.486104,132.10362 140.86314,132.574964 142,133 C146.520545,134.69009 151.882963,134.835945 155,135 C157.97486,135.156572 162.746747,135.098858 167,134 C168.528847,133.605012 170.900787,132.730194 174.115819,131.375546 L174.115827,131.375564 C174.674222,131.140285 175.095845,130.664542 175.262309,130.081918 L183,103 C179.764973,99.4244221 177.43164,97.0910888 176,96 C172.500254,93.332756 169.49292,92.6232301 167,92 C164.695032,91.4237581 161.041261,90.4780801 157,91 C154.992351,91.2592835 151.659017,92.2592835 147,94 Z" id="Path-4" fill="url(#linearGradient-16)"></path>
            <circle id="Oval-4" stroke="#FBFFFF" fill="#E3E6E7" cx="152" cy="124" r="4"></circle>
            <circle id="Oval-5" fill="#95B0D1" cx="164.5" cy="117.5" r="2.5"></circle>
            <path d="M98.0925233,116.583074 L107.892665,85.4008061 C108.21676,84.3695927 109.301572,83.7824967 110.342143,84.0751574 L138.489766,91.9916763 C139.553081,92.2907336 140.172634,93.3951545 139.873577,94.4584694 C139.8681,94.4779432 139.862328,94.4973327 139.856262,94.5166314 L130.056121,125.698899 C129.732025,126.730113 128.647214,127.317209 127.606642,127.024548 L99.4590195,119.108029 C98.3957047,118.808972 97.7761515,117.704551 98.0752088,116.641236 C98.0806858,116.621762 98.086458,116.602372 98.0925233,116.583074 Z" id="Path-5-Copy" fill="#B6CAD0"></path>
            <path d="M97.0925233,113.583074 L106.892665,82.4008061 C107.21676,81.3695927 108.301572,80.7824967 109.342143,81.0751574 L137.489766,88.9916763 C138.553081,89.2907336 139.172634,90.3951545 138.873577,91.4584694 C138.8681,91.4779432 138.862328,91.4973327 138.856262,91.5166314 L129.056121,122.698899 C128.732025,123.730113 127.647214,124.317209 126.606642,124.024548 L98.4590195,116.108029 C97.3957047,115.808972 96.7761515,114.704551 97.0752088,113.641236 C97.0806858,113.621762 97.086458,113.602372 97.0925233,113.583074 Z" id="Path-5" fill="#EEF2F3"></path>
            <path d="M130.5,99.5 L128.5,107.5" id="Line" stroke="#B8CDD4" stroke-width="3" stroke-linecap="round"></path>
            <path d="M131,93 L111.5,87.5" id="Line-Copy" stroke="#E0E5E9" stroke-width="5" stroke-linecap="round"></path>
            <circle id="Oval-6" fill="#EED26B" cx="115.5" cy="102.5" r="2.5"></circle>
            <circle id="Oval-6-Copy" fill="#E697AA" cx="112.5" cy="110.5" r="2.5"></circle>
            <rect id="Rectangle-4" fill="#98D2F3" transform="translate(122.379342, 114.939362) rotate(16.000000) translate(-122.379342, -114.939362) " x="117.887282" y="111.089024" width="8.98412086" height="7.70067503" rx="2"></rect>
            <path d="M90,26 L94,20 C97.5540037,23.0795158 100.22067,25.7461824 102,28 C103.77933,30.2538176 105.77933,33.5871509 108,38 C110.268766,42.8464556 111.6021,46.5131223 112,49 C112.3979,51.4868777 112.3979,56.1535444 112,63 L106.928712,62.9999975 C105.859655,62.9999975 104.979616,62.159267 104.930801,61.0913243 C104.568103,53.1565492 103.307574,46.6261077 101.149213,41.5 C98.1449134,34.3647892 94.4285091,29.1981225 90,26 Z" id="Path-14" fill="url(#linearGradient-15)"></path>
            <path d="M25.0542623,70.0459493 L32.4877596,70.3678641 C36.0417633,73.4473798 38.7084299,76.1140465 40.4877596,78.3678641 C42.2670892,80.6216816 44.2670892,83.955015 46.4877596,88.3678641 C48.7565258,93.2143197 50.0898592,96.8809863 50.4877596,99.3678641 C50.88566,101.854742 51.0288622,107.195516 50.917366,115.390187 L43.4877596,113.367864 C43.2496021,104.565987 41.9660063,97.3993199 39.6369723,91.8678641 C36.632673,84.7326532 31.7717697,77.4586816 25.0542623,70.0459493 Z" id="Path-14-Copy" fill="url(#linearGradient-15)" transform="translate(38.004117, 92.718068) rotate(-77.000000) translate(-38.004117, -92.718068) "></path>
            <path d="M13.1640731,113.424827 L19.2202142,91.2189765 C19.3043017,90.9106558 19.2359603,90.5807154 19.0363192,90.3311641 L11.0539223,80.353168 C10.7699545,79.9982081 10.2823067,79.879433 9.86691507,80.0640515 L1.56666521,83.7530514 C1.07757387,83.9704254 0.846347272,84.5343574 1.04205218,85.0325153 L12.2163155,113.476095 C12.3172876,113.733115 12.6074975,113.859616 12.8645174,113.758644 C13.0114754,113.700911 13.1225291,113.577155 13.1640731,113.424827 Z" id="Path-7" fill="#A0C3D7"></path>
            <path d="M81.1601866,39.2597201 L88,29 L94,19 L94,7.90753645 C94,7.33081129 93.7510391,6.78215924 93.3170092,6.40238306 L87.6773414,1.4676737 C86.8460681,0.740309597 85.5825429,0.824544613 84.8551788,1.65581788 C84.8077092,1.7100688 84.7632074,1.76684651 84.7218683,1.8259024 L66.1219402,28.3972283 C65.4983529,29.2880672 65.7007859,30.5139096 66.5776767,31.1569629 L78.3133587,39.7631297 C79.204089,40.416332 80.4556937,40.2237774 81.108896,39.333047 C81.1265376,39.3089903 81.1436387,39.2845419 81.1601866,39.2597201 Z" id="Path-8" fill="#A0C3D7"></path>
            <path d="M71,87 C73.193357,85.4754324 75.193357,84.4754324 77,84 C78.739765,83.5421671 82.8226175,82.906996 89.2485575,82.0944867 L89.2485589,82.0944981 C89.5225137,82.0598587 89.7726788,82.2538621 89.8073182,82.5278169 C89.8157949,82.5948573 89.8105942,82.6629204 89.7920301,82.7278946 L86.1790712,95.3732509 C86.103209,95.6387684 85.8264661,95.7925144 85.5609486,95.7166523 C85.5188827,95.7046335 85.478576,95.6871456 85.4410613,95.6646368 L71,87 Z" id="Path-11" fill="#6D96CB"></path>
            <path d="M54.3420042,108.958178 L59.4074771,110.646669 C59.6694488,110.733993 59.9526088,110.592413 60.0399327,110.330441 L67.7403001,87.2293386 C67.8208669,86.9876382 67.7068125,86.7240105 67.4754875,86.6172451 L61.9047618,84.0461409 C61.6540357,83.9304212 61.3569727,84.0398654 61.241253,84.2905915 C61.2314045,84.31193 61.2230727,84.3339362 61.2163196,84.3564466 L54.0212049,108.340162 C53.9435504,108.59901 54.0856268,108.872719 54.3420042,108.958178 Z" id="Path-12" fill="#79CFF9"></path>
            <path d="M91.1679993,83.2629651 L96.2264507,84.9491156 C96.4884224,85.0364395 96.7715823,84.8948595 96.8589062,84.6328878 C96.8596807,84.6305645 96.860438,84.6282356 96.8611782,84.6259011 L104.610887,60.1854535 C104.694352,59.922227 104.548627,59.6411779 104.2854,59.5577126 C104.273744,59.5540167 104.261957,59.5507497 104.250062,59.547918 L98.6669094,58.218857 C98.4091804,58.157505 98.1483348,58.3078336 98.0722075,58.5615913 L90.8472,82.6449495 C90.7695456,82.9037978 90.9116219,83.177506 91.1679993,83.2629651 Z" id="Path-12-Copy" fill="#79CFF9" transform="translate(97.730201, 71.590040) rotate(87.000000) translate(-97.730201, -71.590040) "></path>
            <path d="M168,54 L184,36 C189.096778,35.3720445 192.430111,35.3720445 194,36 C195.569889,36.6279555 197.236555,38.6279555 199,42 L178,61 L170,63 L168,54 Z" id="Path-13" fill="#93B8D0"></path>
            <path d="M159.363426,63.3160005 L164.430523,65.0050328 C164.690001,65.0915254 164.970821,64.9534733 165.060804,64.6951848 L172.34428,43.7884922 C172.428946,43.5454651 172.315308,43.2778646 172.081642,43.1700188 L166.511096,40.5989975 C166.26037,40.4832778 165.963307,40.592722 165.847587,40.8434481 C165.838453,40.8632386 165.830623,40.8836051 165.824147,40.9044174 L159.044119,62.693099 C158.963235,62.9530356 159.105165,63.2299136 159.363426,63.3160005 Z" id="Path-12-Copy-2" fill="#79CFF9" transform="translate(165.696810, 52.791838) rotate(143.000000) translate(-165.696810, -52.791838) "></path>
            <path d="M83.3634257,193.316 L88.4305226,195.005033 C88.6900006,195.091525 88.9708211,194.953473 89.0608037,194.695185 L96.3442802,173.788492 C96.428946,173.545465 96.315308,173.277865 96.0816421,173.170019 L90.5110958,170.598997 C90.2603698,170.483278 89.9633068,170.592722 89.8475871,170.843448 C89.838453,170.863239 89.8306228,170.883605 89.8241466,170.904417 L83.0441195,192.693099 C82.9632345,192.953036 83.1051653,193.229914 83.3634257,193.316 Z" id="Path-12-Copy-3" fill="#79CFF9" transform="translate(89.696810, 182.791838) rotate(143.000000) translate(-89.696810, -182.791838) "></path>
        </g>
    </g>
</svg>