<?xml version="1.0" encoding="UTF-8"?>
<svg width="59px" height="58px" viewBox="0 0 59 58" version="1.1" xmlns="http://www.w3.org/2000/svg" xmlns:xlink="http://www.w3.org/1999/xlink">
    <!-- Generator: Sketch 50.2 (55047) - http://www.bohemiancoding.com/sketch -->
    <title>noun_1730060_cc</title>
    <desc>Created with Sketch.</desc>
    <defs></defs>
    <g id="Page-1" stroke="none" stroke-width="1" fill="none" fill-rule="evenodd">
        <g id="DashBoard-Edit-Copy-2" transform="translate(-1028.000000, -421.000000)" stroke="#817E7E" stroke-width="2.5">
            <g id="noun_1730060_cc" transform="translate(1029.001472, 421.501472)">
                <g id="Group">
                    <g id="Group-13">
                        <g>
                            <g transform="translate(0.998528, 0.998528)">
                                <path d="M0,27.4985284 C0,12.3115106 12.3081713,0 27.4985284,0 C42.6855463,0 54.9970568,12.3081713 54.9970568,27.4985284 C54.9970568,42.6855463 42.6888855,54.9970568 27.4985284,54.9970568 C12.3115106,54.9970568 0,42.6888855 0,27.4985284 Z M11.5758541,16.9512709 L11.5758541,37.3329794 C11.5758541,39.6990385 13.4967244,41.6215344 15.8662381,41.6215344 L39.5944575,41.6215344 C41.960524,41.6215344 43.8848415,39.7014829 43.8848415,37.3329794 L43.8848415,16.9512709 C43.8848415,14.5852117 41.9639711,12.6627158 39.5944575,12.6627158 L15.8662381,12.6627158 C13.5001716,12.6627158 11.5758541,14.5827673 11.5758541,16.9512709 Z" id="Shape"></path>
                                <ellipse id="Oval" cx="34.7102671" cy="20.9732877" rx="2.86212286" ry="2.79460311"></ellipse>
                                <polygon id="Shape" stroke-linejoin="round" points="14.0846646 35.4115142 23.3378877 22.399596 30.73585 32.4741169 35.5934277 27.759979 41.376031 35.4115142"></polygon>
                            </g>
                        </g>
                    </g>
                </g>
            </g>
        </g>
    </g>
</svg>