<?xml version="1.0" encoding="UTF-8"?>
<svg width="23px" height="22px" viewBox="0 0 23 22" version="1.1" xmlns="http://www.w3.org/2000/svg" xmlns:xlink="http://www.w3.org/1999/xlink">
    <!-- Generator: Sketch 50.2 (55047) - http://www.bohemiancoding.com/sketch -->
    <title>Overrides/Cell/Detail</title>
    <desc>Created with Sketch.</desc>
    <defs></defs>
    <g id="Page-1" stroke="none" stroke-width="1" fill="none" fill-rule="evenodd">
        <g id="Interview-Mobile" transform="translate(-306.000000, -143.000000)" fill="#68DBF9">
            <g id="Cards" transform="translate(-299.000000, 125.000000)">
                <g id="Group" transform="translate(331.000000, 0.000000)">
                    <g id="Overrides/Cell/Detail" transform="translate(270.000000, 18.000000)">
                        <path d="M15.5,21.5 C9.42486775,21.5 4.5,16.5751322 4.5,10.5 C4.5,4.42486775 9.42486775,-0.5 15.5,-0.5 C21.5751322,-0.5 26.5,4.42486775 26.5,10.5 C26.5,16.5751322 21.5751322,21.5 15.5,21.5 Z M15.5,20.5 C21.0228475,20.5 25.5,16.0228475 25.5,10.5 C25.5,4.9771525 21.0228475,0.5 15.5,0.5 C9.9771525,0.5 5.5,4.9771525 5.5,10.5 C5.5,16.0228475 9.9771525,20.5 15.5,20.5 Z M13.5,8 L16.5,8 L16.5,16 L17.5,16 L17.5,16.5 L13.5,16.5 L13.5,16 L14.5,16 L14.5,8.5 L13.5,8.5 L13.5,8 Z M15.25,6.5 C14.5596441,6.5 14,5.94035594 14,5.25 C14,4.55964406 14.5596441,4 15.25,4 C15.9403559,4 16.5,4.55964406 16.5,5.25 C16.5,5.94035594 15.9403559,6.5 15.25,6.5 Z" id="Detail-Disclosure"></path>
                    </g>
                </g>
            </g>
        </g>
    </g>
</svg>