<?xml version="1.0" encoding="UTF-8"?>
<svg width="41px" height="41px" viewBox="0 0 41 41" version="1.1" xmlns="http://www.w3.org/2000/svg" xmlns:xlink="http://www.w3.org/1999/xlink">
    <!-- Generator: Sketch 50.2 (55047) - http://www.bohemiancoding.com/sketch -->
    <title>Glyphs/Touch ID 2</title>
    <desc>Created with Sketch.</desc>
    <defs></defs>
    <g id="Mobile" stroke="none" stroke-width="1" fill="none" fill-rule="evenodd" stroke-linecap="round">
        <g id="Interview-Mobile" transform="translate(-169.000000, -509.000000)" stroke="#FF2D55">
            <g id="Content" transform="translate(32.000000, 125.000000)">
                <g id="Glyphs/Touch-ID-2" transform="translate(127.416726, 374.000000)">
                    <g id="Touch-ID" transform="translate(11.199939, 11.699939)">
                        <path d="M38.1677577,15.4667954 C36.063907,5.03251975 25.9009845,-1.71990911 15.467141,0.38394159 M12.671008,1.16817724 C3.85960508,4.36976106 -1.52530415,13.6160255 0.383999202,23.0854225 M38.5509245,18.6429831 C38.5151911,17.5919722 38.3927989,16.5298134 38.1781135,15.4648653 M0.394412593,23.0835213 C0.450296352,23.3602035 0.511653263,23.6342932 0.578771386,23.9057903" id="Stroke-1" stroke-width="1.5"></path>
                        <path d="M14.3005099,37.8973984 C15.0450123,37.0500263 15.7222572,36.1465443 16.3261629,35.1960863 M17.1721425,33.7440443 C19.4497459,29.4639558 20.3141234,24.3985965 19.281078,19.2751439" id="Stroke-7" stroke-width="1.5"></path>
                        <path d="M16.9985433,38.4166997 C19.0003109,35.8551455 20.4812337,32.8985734 21.3229055,29.724703 M21.7890709,27.5723106 C22.2668939,24.7429233 22.2438955,21.779842 21.6428005,18.7990517 C21.3858505,17.4854953 20.1087337,16.6367247 18.7974818,16.9011644 C17.4865179,17.165604 16.6378914,18.4427208 16.902331,19.7541167 C18.2287061,26.2448425 16.1097322,32.6337389 11.8091313,37.0439469" id="Stroke-9" stroke-width="1.5"></path>
                        <path d="M19.8916656,38.5394856 C20.7371967,37.3038726 21.4786098,35.9974021 22.1063206,34.6344474 M22.7278094,33.1714425 C24.509322,28.6025565 25.0456679,23.4868982 24.0044511,18.3229596 C23.4827733,15.706505 20.9361734,14.0142929 18.3217353,14.5415879 M16.661218,15.2140787 C15.0394084,16.2589175 14.1380601,18.2245045 14.5425241,20.2299208 C15.4020816,24.4145462 14.6173818,28.55198 12.6401696,31.983536 M11.8106742,33.2830247 C11.1445314,34.2290304 10.3813897,35.1074809 9.53214177,35.9020026" id="Stroke-11" stroke-width="1.5"></path>
                        <path d="M22.9645522,38.1903849 C26.4368349,32.2711714 27.8293199,25.102783 26.366116,17.8466801 L26.3695727,17.8452398 C25.5795665,13.9274714 21.7636275,11.3919619 17.8460032,12.1819682 C13.9282348,12.9719744 11.3927253,16.7879133 12.1828755,20.7058258 L12.1961263,20.7035213 C13.2645432,26.0028284 11.2897436,31.2089478 7.47510093,34.512715" id="Stroke-13" stroke-width="1.5"></path>
                        <path d="M26.1904566,37.2664161 C29.0955479,31.3031293 30.1400557,24.3746954 28.7278386,17.3706456 C27.6764173,12.1483947 22.5911393,8.76958771 17.3703287,9.82230523 C12.1492301,10.8751668 8.77027906,15.9605889 9.82299657,21.1818315 C10.7482473,25.7123048 8.98978125,30.1621212 5.64539752,32.9014336" id="Stroke-15" stroke-width="1.5"></path>
                        <path d="M4.04861992,31.0933779 C6.53509289,29.0958596 7.95133298,25.9270682 7.61592505,22.6049567 M7.28845374,20.5139064 C6.65031198,14.4059884 10.7523024,8.70126415 16.894395,7.46275753 C20.6603125,6.70337189 24.3697461,7.78914572 27.0861784,10.0977748 M28.4517947,11.4605156 C29.7377839,12.9677378 30.6694048,14.8138026 31.0888698,16.893862 C31.6935433,19.8911822 31.8803241,22.8755351 31.6896177,25.7868854 M31.5477475,27.373067 C31.2254922,30.2127936 30.5440774,32.9710466 29.5421283,35.5904362" id="Stroke-17" stroke-width="1.5"></path>
                        <path d="M32.9566548,32.8516999 C33.9765418,29.0262765 34.3783587,24.9900552 34.068139,20.8810672 M33.8373648,18.7033306 C33.7335435,17.9430477 33.6050355,17.1811232 33.4512549,16.418418 C31.8702342,8.59051483 24.2459899,3.52496893 16.4186628,5.10310901 M14.0659654,5.78690268 C7.60741215,8.27276436 3.68968095,15.1216274 5.10349789,22.1336846 C5.65124515,24.8119282 4.63626357,27.443938 2.68810964,29.0946694" id="Stroke-19" stroke-width="1.5"></path>
                        <path d="M36.2866499,28.3347222 C36.51465,26.5033161 36.6122175,24.6413147 36.571157,22.7605498 M36.4327639,20.2339248 C36.3077167,18.8092991 36.1022673,17.3770523 35.8129342,15.9422106 C35.356298,13.6834718 34.4683664,11.6218885 33.2522463,9.82601409 M31.6568787,7.81894467 C27.7934693,3.65362375 21.9189556,1.53861178 15.9429451,2.74356131 C10.3163219,3.87808069 5.91304924,7.6905834 3.7927219,12.5863528 M2.93107366,15.1039621 C2.3213956,17.485534 2.22523104,20.0381251 2.74371974,22.6095175 C3.06879614,24.1925546 2.57289979,25.7512506 1.55201298,26.8526504" id="Stroke-21" stroke-width="1.5"></path>
                    </g>
                </g>
            </g>
        </g>
    </g>
</svg>